<?xml version="1.0" encoding="UTF-8"?>
<svg xmlns="http://www.w3.org/2000/svg" xmlns:xlink="http://www.w3.org/1999/xlink" width="100px" height="100px" viewBox="0 0 100 100" version="1.1">
<g id="surface1">
<path style=" stroke:none;fill-rule:nonzero;fill:#6960F7;fill-opacity:1;" d="M 72.988281 52.316406 C 72.949219 45.65625 75.96875 40.632812 82.0625 36.933594 C 78.652344 32.050781 73.496094 29.367188 66.699219 28.847656 C 60.265625 28.339844 53.222656 32.597656 50.644531 32.597656 C 47.921875 32.597656 41.6875 29.023438 36.789062 29.023438 C 26.671875 29.179688 15.917969 37.089844 15.917969 53.183594 C 15.917969 57.941406 16.789062 62.851562 18.523438 67.910156 C 20.851562 74.570312 29.226562 90.890625 37.96875 90.625 C 42.539062 90.519531 45.769531 87.382812 51.71875 87.382812 C 57.488281 87.382812 60.476562 90.625 65.574219 90.625 C 74.394531 90.5 81.972656 75.664062 84.179688 68.984375 C 72.351562 63.410156 72.988281 52.65625 72.988281 52.316406 Z M 71.953125 78.390625 C 70.554688 80.332031 69.148438 81.867188 67.859375 82.851562 C 66.835938 83.632812 66.046875 83.964844 65.515625 83.984375 C 64.640625 83.976562 63.789062 83.761719 62.128906 83.125 C 62.011719 83.078125 61.882812 83.027344 61.71875 82.96875 C 61.640625 82.941406 61.335938 82.824219 61.289062 82.804688 C 59.589844 82.148438 58.574219 81.796875 57.273438 81.457031 C 55.457031 80.988281 53.652344 80.734375 51.71875 80.734375 C 49.746094 80.734375 47.890625 80.976562 46.042969 81.4375 C 44.6875 81.777344 43.542969 82.160156 41.875 82.785156 C 41.804688 82.8125 41.082031 83.085938 40.878906 83.164062 C 40.535156 83.292969 40.273438 83.390625 40.027344 83.476562 C 39.011719 83.828125 38.367188 83.976562 37.792969 83.984375 C 37.722656 83.984375 37.664062 83.976562 37.617188 83.964844 C 37.507812 83.945312 37.371094 83.90625 37.214844 83.839844 C 36.777344 83.664062 36.25 83.339844 35.652344 82.882812 C 34.285156 81.816406 32.78125 80.148438 31.25 78.007812 C 28.5625 74.238281 26.023438 69.238281 24.804688 65.734375 C 23.300781 61.359375 22.558594 57.167969 22.558594 53.175781 C 22.558594 47.296875 24.296875 42.824219 27.285156 39.785156 C 29.851562 37.1875 33.308594 35.734375 36.835938 35.65625 C 37.410156 35.664062 38.25 35.800781 39.316406 36.09375 C 40.15625 36.320312 41.074219 36.621094 42.3125 37.0625 C 42.683594 37.199219 43.964844 37.65625 44.121094 37.714844 C 44.871094 37.988281 45.4375 38.183594 45.996094 38.359375 C 47.773438 38.925781 49.148438 39.238281 50.644531 39.238281 C 52.15625 39.238281 53.457031 38.917969 55.300781 38.28125 C 55.996094 38.046875 58.515625 37.109375 58.964844 36.953125 C 61.464844 36.066406 63.308594 35.585938 64.902344 35.46875 C 65.371094 35.429688 65.789062 35.429688 66.191406 35.460938 C 68.40625 35.636719 70.300781 36.074219 71.914062 36.808594 C 68.242188 41.046875 66.347656 46.230469 66.355469 52.277344 C 66.328125 53.710938 66.445312 55.371094 66.855469 57.335938 C 67.480469 60.3125 68.671875 63.261719 70.554688 66.027344 C 71.992188 68.125 73.769531 70.019531 75.898438 71.671875 C 74.773438 73.984375 73.398438 76.378906 71.953125 78.390625 Z M 71.953125 78.390625 "/>
<path style=" stroke:none;fill-rule:nonzero;fill:#6960F7;fill-opacity:1;" d="M 62.722656 22.53125 C 67.675781 16.648438 67.226562 11.296875 67.078125 9.375 C 62.703125 9.628906 57.644531 12.351562 54.765625 15.703125 C 51.589844 19.296875 49.726562 23.742188 50.125 28.75 C 54.851562 29.109375 59.171875 26.679688 62.722656 22.53125 Z M 62.722656 22.53125 "/>
</g>
</svg>
